HIERARCHY
ROOT root     
{
	OFFSET 0.0000 0.0000 0.0000
	CHANNELS 6 Xposition Yposition Zposition Zrotation Yrotation Xrotation
	JOINT pelvis   
	{
		OFFSET 0.0000 0.0000 0.0000
		CHANNELS 3 Zrotation Yrotation Xrotation
		JOINT thorax   
		{
			OFFSET 0.0000 23.0750 -5.0000
			CHANNELS 3 Zrotation Yrotation Xrotation
			JOINT rclavicle
			{
				OFFSET 0.0000 28.0009 0.0000
				CHANNELS 3 Zrotation Yrotation Xrotation
				JOINT rhumerus 
				{
					OFFSET -18.5725 5.5939 0.0000
					CHANNELS 3 Zrotation Yrotation Xrotation
					JOINT rradius  
					{
						OFFSET -24.8459 0.0000 0.0000
						CHANNELS 3 Zrotation Yrotation Xrotation
						JOINT rhand    
						{
							OFFSET -24.5477 0.0000 0.0000
							CHANNELS 3 Zrotation Yrotation Xrotation
							End Site
							{
								OFFSET -8.1826 0.0000 0.0000
							}
						}
					}
				}
			}
			JOINT lclavicle
			{
				OFFSET 0.0000 28.0009 0.0000
				CHANNELS 3 Zrotation Yrotation Xrotation
				JOINT lhumerus 
				{
					OFFSET 18.5725 5.5939 0.0000
					CHANNELS 3 Zrotation Yrotation Xrotation
					JOINT lradius  
					{
						OFFSET 24.8459 0.0000 0.0000
						CHANNELS 3 Zrotation Yrotation Xrotation
						JOINT lhand    
						{
							OFFSET 24.5477 0.0000 0.0000
							CHANNELS 3 Zrotation Yrotation Xrotation
							End Site
							{
								OFFSET 8.1826 0.0000 0.0000
							}
						}
					}
				}
			}
			JOINT head     
			{
				OFFSET 0.0000 35.2030 0.0000
				CHANNELS 3 Zrotation Yrotation Xrotation
				End Site
				{
					OFFSET 0.0000 11.7343 0.0000
				}
			}
		}
		JOINT rfemur   
		{
			OFFSET -8.2817 0.0000 0.0000
			CHANNELS 3 Zrotation Yrotation Xrotation
			JOINT rtibia   
			{
				OFFSET 0.0000 -43.3627 0.0000
				CHANNELS 3 Zrotation Yrotation Xrotation
				JOINT rfoot    
				{
					OFFSET 0.0000 -38.2947 0.0000
					CHANNELS 3 Zrotation Yrotation Xrotation
					JOINT rtoes    
					{
						OFFSET 0.0000 0.0000 16.6054
						CHANNELS 3 Zrotation Yrotation Xrotation
						End Site
						{
							OFFSET 0.0000 0.0000 5.5351
						}
					}
				}
			}
		}
		JOINT lfemur   
		{
			OFFSET 8.2817 0.0000 0.0000
			CHANNELS 3 Zrotation Yrotation Xrotation
			JOINT ltibia   
			{
				OFFSET 0.0000 -43.3627 0.0000
				CHANNELS 3 Zrotation Yrotation Xrotation
				JOINT lfoot    
				{
					OFFSET 0.0000 -38.2947 0.0000
					CHANNELS 3 Zrotation Yrotation Xrotation
					JOINT ltoes    
					{
						OFFSET 0.0000 0.0000 16.6054
						CHANNELS 3 Zrotation Yrotation Xrotation
						End Site
						{
							OFFSET 0.0000 0.0000 5.5351
						}
					}
				}
			}
		}
	}
}
MOTION
Frames: 15
Frame Time: .0333333
-13.508 80.965 11.843 163.508 -81.1758 -141.208 0 -0 0 -16.3658 6.91847 -14.1583 18.716 -7.55194 -3.25224e-05 22.6789 25.9933 11.148 -180 71.4777 -180 -9.79547 9.39456 -0.806789 -21.6049 22.414 5.35921e-05 -30.6504 9.16169 -51.3921 9.46896e-07 -68.0625 -6.39429e-07 32.7921 6.78361 1.9981 16.5372 -1.64656 -10.4709 -6.74763 -8.54433 3.24322 -0 -0 32.2448 -8.04167e-05 12.9848 39.3801 8.32354 -3.03977e-05 -63.7549 -7.26982 0.381128 -50.2602 -0 -0 43.8182 -2.85349e-06 4.55233 -2.60296 -0.207204 4.0107e-09 -19.4569 
-14.947 80.715 11.945 162.378 -80.7996 -140.351 0 -0 0 -16.7711 6.89588 -14.0813 18.8027 -7.60015 1.53179e-06 22.9917 26.1521 12.0852 -180 71.4134 -180 -9.22501 9.34834 -0.755892 -21.9082 22.4137 9.27086e-05 -31.2964 8.9246 -50.9509 0 -67.0367 -0 32.8348 7.04425 2.078 16.8214 -2.026 -10.2085 -7.68912 -9.38065 2.50778 -0 -0 35.0558 -9.16919e-07 10.8009 39.5073 6.91996 -4.25742e-05 -62.4058 -7.72243 0.203435 -49.648 -0 -0 45.3283 1.24603e-06 5.14546 -4.21593 -0.379297 2.05254e-06 -18.5498 
-16.373 80.533 12.055 161.728 -80.3416 -139.978 0 -0 0 -17.0909 6.95704 -14.0203 18.9033 -7.64387 9.27614e-06 23.4059 26.2783 13.1732 -180 71.4739 -180 -8.65916 9.35659 -0.709909 -22.2515 22.4233 5.56254e-05 -32.0435 8.5143 -50.4102 0 -65.8182 -0 32.6842 7.4329 2.18233 16.9487 -2.34347 -9.87028 -8.57778 -9.99921 1.64018 -0 -0 37.8801 5.43503e-05 8.04991 39.4094 5.13059 3.49619e-05 -61.0557 -8.15387 0.0555209 -48.8449 -0 -0 46.4429 -2.1174e-06 5.84737 -5.8978 -0.602905 -1.83211e-06 -18.0473 
-17.786 80.419 12.163 161.617 -79.8235 -140.148 0 -0 0 -17.2957 7.09152 -13.974 19.0235 -7.6796 8.16562e-05 23.8863 26.3651 14.3793 -180 71.6645 -180 -8.07434 9.42149 -0.666488 -22.6382 22.4361 7.90785e-05 -32.8804 7.95876 -49.7826 8.36532e-07 -64.4213 -5.27002e-07 32.3151 7.9568 2.30867 16.9372 -2.59069 -9.47027 -9.36396 -10.3778 0.661117 -0 -0 40.6611 1.12363e-05 4.88986 39.009 3.08227 -1.50734e-05 -59.6535 -8.53401 -0.0527677 -47.8727 -0 -0 47.1917 7.85555e-06 6.61948 -7.56277 -0.874992 3.12354e-06 -17.8828 
-19.186 80.37 12.267 161.946 -79.2683 -140.761 0 -0 0 -17.3817 7.28115 -13.9331 19.1707 -7.70639 7.54177e-06 24.3994 26.4073 15.6591 -180 71.9781 -180 -7.43708 9.53472 -0.621096 -23.0544 22.4553 -1.56328e-05 -33.7999 7.2691 -49.08 0 -62.8551 0 31.7104 8.59633 2.44567 16.8175 -2.76288 -9.02972 -10.0329 -10.5275 -0.41069 -0 -0 43.3565 1.96066e-05 1.54002 38.2536 0.953611 4.40582e-06 -58.1625 -8.85436 -0.127808 -46.7545 -0 -0 47.6022 6.60778e-06 7.42997 -9.1226 -1.18453 -8.46602e-06 -17.9668 
-20.573 80.383 12.362 162.65 -78.7018 -141.749 0 -0 0 -17.3393 7.50173 -13.8934 19.3453 -7.72356 -1.192e-05 24.9099 26.3997 16.9602 -180 72.4068 -180 -6.70815 9.67605 -0.568404 -23.4964 22.471 0.000112296 -34.7879 6.47541 -48.3113 7.61584e-07 -61.1438 -4.49897e-07 30.8619 9.32052 2.57793 16.6192 -2.85813 -8.5712 -10.5648 -10.4666 -1.55993 -0 -0 45.932 9.02211e-06 -1.77788 37.1297 -1.0734 2.87029e-06 -56.5706 -9.10232 -0.173495 -45.5135 -0 -0 47.7126 8.21344e-06 8.24139 -10.5026 -1.51245 1.19634e-07 -18.1951 
-21.943 80.454 12.445 163.62 -78.1455 -142.998 0 -0 0 -17.1734 7.72438 -13.8484 19.5496 -7.73252 -7.4917e-05 25.3956 26.3365 18.2304 -180 72.9343 -180 -5.84597 9.81399 -0.502295 -23.9521 22.4779 8.95408e-05 -35.826 5.60286 -47.4804 -5.85352e-07 -59.3124 1.02803e-06 29.7762 10.0784 2.68586 16.3714 -2.87842 -8.11947 -10.9546 -10.2295 -2.77508 -0 -0 48.366 3.33859e-05 -4.86402 35.6649 -2.84037 4.31403e-05 -54.8778 -9.27569 -0.198392 -44.1761 -0 -0 47.5611 3.44682e-05 9.01915 -11.6458 -1.83523 -8.23134e-06 -18.4686 
-23.295 80.579 12.515 164.773 -77.6184 -144.416 0 -0 0 -16.8884 7.91902 -13.7961 19.7791 -7.73595 1.74157e-05 25.8338 26.2169 19.4143 -180 73.5374 -180 -4.81435 9.90884 -0.417607 -24.4145 22.4558 5.93886e-05 -36.9005 4.69575 -46.5884 -5.38207e-07 -57.4052 9.82963e-07 28.4852 10.8132 2.7524 16.0988 -2.8291 -7.69587 -11.199 -9.85699 -4.04595 -0 -0 50.6376 6.08016e-05 -7.57145 33.9195 -4.24203 -3.60333e-05 -53.1347 -9.37608 -0.208795 -42.768 -0 -0 47.1871 1.42414e-05 9.73107 -12.5216 -2.12933 -7.42072e-06 -18.7038 
-24.624 80.752 12.569 166.024 -77.1493 -145.911 0 -0 0 -16.4973 8.0567 -13.7304 20.031 -7.73778 3.88329e-05 26.2123 26.0379 20.4639 -180 74.1997 -180 -3.5856 9.91648 -0.311202 -24.8728 22.3873 -1.02169e-05 -37.9969 3.78642 -45.6227 0 -55.4608 0 27.0394 11.4626 2.76482 15.8248 -2.71871 -7.32056 -11.3063 -9.39603 -5.36229 -0 -0 52.7306 1.26642e-05 -9.80858 31.9753 -5.23092 -1.47926e-05 -51.3935 -9.41228 -0.210966 -41.3128 -0 -0 46.6253 2.40896e-05 10.3512 -13.1226 -2.37457 7.38015e-06 -18.852 
-25.928 80.967 12.61 167.303 -76.7548 -147.405 0 -0 0 -16.0153 8.11107 -13.6476 20.2971 -7.74399 -5.2852e-05 26.5287 25.801 21.3369 -180 74.8917 -180 -2.14413 9.79501 -0.183793 -25.3109 22.2724 2.56271e-05 -39.1134 2.88877 -44.5639 0 -53.5261 0 25.5154 11.9635 2.71818 15.5632 -2.55737 -7.00903 -11.2866 -8.89568 -6.71293 -0 -0 54.634 2.60877e-05 -11.532 29.9049 -5.80829 4.92939e-05 -49.6197 -9.39519 -0.208934 -39.8261 -0 -0 45.9035 -1.04172e-05 10.8601 -13.4651 -2.55803 2.2146e-06 -18.8996 
-27.206 81.219 12.637 168.567 -76.4608 -148.854 0 -0 0 -15.4528 8.06344 -13.5436 20.5672 -7.75775 -4.76518e-05 26.7824 25.5092 22.0013 -180 75.5911 -180 -0.494999 9.50724 -0.0411997 -25.7234 22.0801 -6.06651e-05 -40.2398 2.05776 -43.3848 0 -51.6696 0 23.9966 12.2892 2.62136 15.3211 -2.35729 -6.77004 -11.1544 -8.39717 -8.08418 -0 -0 56.3257 -8.98995e-05 -12.7495 27.8011 -6.02412 -3.05409e-05 -47.9277 -9.33602 -0.201511 -38.3218 -0 -0 45.0425 9.90769e-07 11.2457 -13.5857 -2.67416 -1.45815e-05 -18.858 
-28.46 81.502 12.652 169.783 -76.2717 -150.226 0 -0 0 -14.8273 7.90027 -13.4112 20.8304 -7.78505 -2.26832e-05 26.9847 25.1658 22.4347 -180 76.2752 -180 1.3396 9.02961 0.1058 -26.0949 21.8188 -3.75877e-05 -41.378 1.2908 -42.05 -3.95992e-07 -49.9411 8.50358e-07 22.573 12.4178 2.48759 15.0955 -2.13095 -6.60863 -10.9257 -7.93999 -9.45995 -0 -0 57.7986 1.48292e-05 -13.4884 25.7259 -5.94397 -1.8989e-05 -46.2458 -9.24719 -0.187045 -36.8045 -0 -0 44.0615 9.64998e-06 11.5034 -13.5272 -2.72536 1.91798e-05 -18.7594 
-29.691 81.812 12.656 170.933 -76.2026 -151.505 0 -0 0 -14.1472 7.61547 -13.247 21.0791 -7.82693 1.07039e-05 27.1399 24.7783 22.6235 -180 76.9408 -180 3.31314 8.35491 0.242103 -26.4223 21.4752 3.43559e-05 -42.5263 0.618383 -40.5281 0 -48.406 0 21.3201 12.3622 2.33572 14.8822 -1.88843 -6.52325 -10.6177 -7.5516 -10.8235 -0 -0 59.0344 5.80975e-05 -13.8098 23.7448 -5.65276 -2.31807e-05 -44.6642 -9.13793 -0.160613 -35.2752 -0 -0 42.9706 -4.24134e-05 11.6356 -13.3351 -2.71916 -5.458e-06 -18.6527 
-30.905 82.142 12.652 172.017 -76.2495 -152.702 0 -0 0 -13.4242 7.21091 -13.0451 21.3035 -7.88643 7.82506e-06 27.2641 24.3529 22.5689 -180 77.576 -180 5.35912 7.49763 0.351401 -26.6995 21.0574 9.32342e-05 -43.6837 0.0355218 -38.7896 0 -47.1103 0 20.2951 12.1498 2.18247 14.6661 -1.64153 -6.50922 -10.2461 -7.2523 -12.1602 -0 -0 60.0265 -1.60668e-05 -13.7836 21.9038 -5.22881 -3.45425e-05 -43.1529 -9.01576 -0.117415 -33.73 -0 -0 41.782 -5.30618e-05 11.6473 -13.0513 -2.66512 -4.81285e-08 -18.5908 
-32.105 82.488 12.641 173.038 -76.4091 -153.829 0 -0 0 -12.662 6.69331 -12.8008 21.4958 -7.96382 -4.79251e-06 27.3699 23.8942 22.2793 -180 78.1835 -180 7.39284 6.49544 0.420101 -26.9267 20.5786 3.44879e-05 -44.8477 -0.466699 -36.8155 -3.40823e-07 -46.0943 8.0109e-07 19.5287 11.8208 2.04131 14.4328 -1.39814 -6.55812 -9.82421 -7.05165 -13.4542 -0 -0 60.7715 -4.624e-05 -13.4906 20.2362 -4.74345 -3.94092e-05 -41.7414 -8.88436 -0.052182 -32.1682 -0 -0 40.5039 4.09078e-05 11.5476 -12.7012 -2.57229 4.26281e-06 -18.6371 
